<?xml version="1.0" encoding="UTF-8"?>
<svg width="447px" height="390px" viewBox="0 0 447 390" version="1.1" xmlns="http://www.w3.org/2000/svg" xmlns:xlink="http://www.w3.org/1999/xlink">
    <!-- Generator: Sketch 56.3 (81716) - https://sketch.com -->
    <title>Calendar</title>
    <desc>Created with Sketch.</desc>
    <defs>
        <path d="M10,0 L67,0 C72.5228475,-1.01453063e-15 77,4.4771525 77,10 L77,60 C77,65.5228475 72.5228475,70 67,70 L10,70 C4.4771525,70 6.76353751e-16,65.5228475 0,60 L0,10 C-2.45271059e-15,4.4771525 4.4771525,1.01453063e-15 10,0 Z" id="path-1"></path>
        <filter x="-51.9%" y="-50.0%" width="203.9%" height="214.3%" filterUnits="objectBoundingBox" id="filter-2">
            <feOffset dx="0" dy="5" in="SourceAlpha" result="shadowOffsetOuter1"></feOffset>
            <feGaussianBlur stdDeviation="12.5" in="shadowOffsetOuter1" result="shadowBlurOuter1"></feGaussianBlur>
            <feColorMatrix values="0 0 0 0 0   0 0 0 0 0   0 0 0 0 0  0 0 0 0.1 0" type="matrix" in="shadowBlurOuter1"></feColorMatrix>
        </filter>
        <path d="M10,0 L67,0 C72.5228475,-1.01453063e-15 77,4.4771525 77,10 L77,60 C77,65.5228475 72.5228475,70 67,70 L10,70 C4.4771525,70 6.76353751e-16,65.5228475 0,60 L0,10 C-2.45271059e-15,4.4771525 4.4771525,1.01453063e-15 10,0 Z" id="path-3"></path>
        <filter x="-51.9%" y="-50.0%" width="203.9%" height="214.3%" filterUnits="objectBoundingBox" id="filter-4">
            <feOffset dx="0" dy="5" in="SourceAlpha" result="shadowOffsetOuter1"></feOffset>
            <feGaussianBlur stdDeviation="12.5" in="shadowOffsetOuter1" result="shadowBlurOuter1"></feGaussianBlur>
            <feColorMatrix values="0 0 0 0 0   0 0 0 0 0   0 0 0 0 0  0 0 0 0.1 0" type="matrix" in="shadowBlurOuter1"></feColorMatrix>
        </filter>
        <path d="M10,0 L67,0 C72.5228475,-1.01453063e-15 77,4.4771525 77,10 L77,60 C77,65.5228475 72.5228475,70 67,70 L10,70 C4.4771525,70 6.76353751e-16,65.5228475 0,60 L0,10 C-2.45271059e-15,4.4771525 4.4771525,1.01453063e-15 10,0 Z" id="path-5"></path>
        <filter x="-51.9%" y="-50.0%" width="203.9%" height="214.3%" filterUnits="objectBoundingBox" id="filter-6">
            <feOffset dx="0" dy="5" in="SourceAlpha" result="shadowOffsetOuter1"></feOffset>
            <feGaussianBlur stdDeviation="12.5" in="shadowOffsetOuter1" result="shadowBlurOuter1"></feGaussianBlur>
            <feColorMatrix values="0 0 0 0 0   0 0 0 0 0   0 0 0 0 0  0 0 0 0.1 0" type="matrix" in="shadowBlurOuter1"></feColorMatrix>
        </filter>
        <path d="M10,0 L67,0 C72.5228475,-1.01453063e-15 77,4.4771525 77,10 L77,90 C77,95.5228475 72.5228475,100 67,100 L10,100 C4.4771525,100 6.76353751e-16,95.5228475 0,90 L0,10 C-2.45271059e-15,4.4771525 4.4771525,1.01453063e-15 10,0 Z" id="path-7"></path>
        <filter x="-51.9%" y="-35.0%" width="203.9%" height="180.0%" filterUnits="objectBoundingBox" id="filter-8">
            <feOffset dx="0" dy="5" in="SourceAlpha" result="shadowOffsetOuter1"></feOffset>
            <feGaussianBlur stdDeviation="12.5" in="shadowOffsetOuter1" result="shadowBlurOuter1"></feGaussianBlur>
            <feColorMatrix values="0 0 0 0 0   0 0 0 0 0   0 0 0 0 0  0 0 0 0.25 0" type="matrix" in="shadowBlurOuter1"></feColorMatrix>
        </filter>
        <rect id="path-9" x="0" y="0" width="209" height="73" rx="10"></rect>
        <filter x="-19.1%" y="-47.9%" width="138.3%" height="209.6%" filterUnits="objectBoundingBox" id="filter-10">
            <feOffset dx="0" dy="5" in="SourceAlpha" result="shadowOffsetOuter1"></feOffset>
            <feGaussianBlur stdDeviation="12.5" in="shadowOffsetOuter1" result="shadowBlurOuter1"></feGaussianBlur>
            <feColorMatrix values="0 0 0 0 0   0 0 0 0 0   0 0 0 0 0  0 0 0 0.1 0" type="matrix" in="shadowBlurOuter1"></feColorMatrix>
        </filter>
    </defs>
    <g id="Page-1" stroke="none" stroke-width="1" fill="none" fill-rule="evenodd">
        <g id="HOME" transform="translate(-778.000000, -2080.000000)">
            <g id="Step-3" transform="translate(200.000000, 2001.000000)">
                <g id="Calendar" transform="translate(603.000000, 99.000000)">
                    <g id="Line" transform="translate(39.000000, 71.000000)" fill="#EFF1F6">
                        <path d="M1,0 C1.55228475,-1.01453063e-16 2,0.44771525 2,1 L2,246 C2,246.552285 1.55228475,247 1,247 C0.44771525,247 6.76353751e-17,246.552285 0,246 L0,1 C-6.76353751e-17,0.44771525 0.44771525,1.01453063e-16 1,0 Z" id="Rectangle-2"></path>
                        <path d="M80,0 C80.5522847,-1.01453063e-16 81,0.44771525 81,1 L81,246 C81,246.552285 80.5522847,247 80,247 C79.4477153,247 79,246.552285 79,246 L79,1 C79,0.44771525 79.4477153,1.01453063e-16 80,0 Z" id="Rectangle-2"></path>
                        <path d="M161,0 C161.552285,-1.01453063e-16 162,0.44771525 162,1 L162,246 C162,246.552285 161.552285,247 161,247 C160.447715,247 160,246.552285 160,246 L160,1 C160,0.44771525 160.447715,1.01453063e-16 161,0 Z" id="Rectangle-2"></path>
                        <path d="M240,0 C240.552285,-1.01453063e-16 241,0.44771525 241,1 L241,246 C241,246.552285 240.552285,247 240,247 C239.447715,247 239,246.552285 239,246 L239,1 C239,0.44771525 239.447715,1.01453063e-16 240,0 Z" id="Rectangle-2"></path>
                        <path d="M319,0 C319.552285,-1.01453063e-16 320,0.44771525 320,1 L320,246 C320,246.552285 319.552285,247 319,247 C318.447715,247 318,246.552285 318,246 L318,1 C318,0.44771525 318.447715,1.01453063e-16 319,0 Z" id="Rectangle-2"></path>
                        <path d="M279,0 C279.552285,-1.01453063e-16 280,0.44771525 280,1 L280,246 C280,246.552285 279.552285,247 279,247 C278.447715,247 278,246.552285 278,246 L278,1 C278,0.44771525 278.447715,1.01453063e-16 279,0 Z" id="Rectangle-2"></path>
                        <path d="M200,0 C200.552285,-1.01453063e-16 201,0.44771525 201,1 L201,246 C201,246.552285 200.552285,247 200,247 C199.447715,247 199,246.552285 199,246 L199,1 C199,0.44771525 199.447715,1.01453063e-16 200,0 Z" id="Rectangle-2"></path>
                        <path d="M119,0 C119.552285,-1.01453063e-16 120,0.44771525 120,1 L120,246 C120,246.552285 119.552285,247 119,247 C118.447715,247 118,246.552285 118,246 L118,1 C118,0.44771525 118.447715,1.01453063e-16 119,0 Z" id="Rectangle-2"></path>
                        <path d="M40,0 C40.5522847,-1.01453063e-16 41,0.44771525 41,1 L41,246 C41,246.552285 40.5522847,247 40,247 C39.4477153,247 39,246.552285 39,246 L39,1 C39,0.44771525 39.4477153,1.01453063e-16 40,0 Z" id="Rectangle-2"></path>
                    </g>
                    <g id="Tasks" transform="translate(0.000000, 100.000000)">
                        <g id="Task-Green" transform="translate(138.000000, 59.000000)">
                            <g id="Bg" fill="#D9F2EC">
                                <path d="M10,0 L118,0 C123.522847,-1.01453063e-15 128,4.4771525 128,10 L128,39 C128,44.5228475 123.522847,49 118,49 L10,49 C4.4771525,49 6.76353751e-16,44.5228475 0,39 L0,10 C-6.76353751e-16,4.4771525 4.4771525,1.01453063e-15 10,0 Z"></path>
                            </g>
                            <text id="Production" font-family="Helvetica" font-size="14" font-weight="normal" fill="#00CD98">
                                <tspan x="30.534668" y="28">Production</tspan>
                            </text>
                        </g>
                        <g id="Task-Purple">
                            <g id="Bg" fill="#DFC6FF">
                                <path d="M10,0 L127.874022,0 C133.396869,-1.01453063e-15 137.874022,4.4771525 137.874022,10 L137.874022,39 C137.874022,44.5228475 133.396869,49 127.874022,49 L10,49 C4.4771525,49 6.00542427e-15,44.5228475 0,39 L0,10 C-6.76353751e-16,4.4771525 4.4771525,1.01453063e-15 10,0 Z"></path>
                            </g>
                            <text id="Design-+-Proof" font-family="Helvetica" font-size="14" font-weight="normal" fill="#5654FC">
                                <tspan x="22.6216714" y="28">Design + Proof</tspan>
                            </text>
                        </g>
                        <g id="Task-Red" transform="translate(259.000000, 118.000000)">
                            <g id="Bg" fill="#E2F5FF">
                                <path d="M10,0 L128,0 C133.522847,-1.01453063e-15 138,4.4771525 138,10 L138,39 C138,44.5228475 133.522847,49 128,49 L10,49 C4.4771525,49 6.76353751e-16,44.5228475 0,39 L0,10 C-6.76353751e-16,4.4771525 4.4771525,1.01453063e-15 10,0 Z"></path>
                            </g>
                            <text id="Mailing" font-family="Helvetica" font-size="14" font-weight="normal" fill="#5BBDEF">
                                <tspan x="46.8242187" y="28">Mailing</tspan>
                            </text>
                        </g>
                    </g>
                    <g id="Dates">
                        <g id="Date-Card">
                            <g id="Bg">
                                <g>
                                    <use fill="black" fill-opacity="1" filter="url(#filter-2)" xlink:href="#path-1"></use>
                                    <use fill="#FFFFFF" fill-rule="evenodd" xlink:href="#path-1"></use>
                                </g>
                            </g>
                            <g id="Date" transform="translate(26.400000, 15.000000)" fill="#929DB3" font-family="Helvetica" font-weight="normal">
                                <text id="14" font-size="20">
                                    <tspan x="2.52695312" y="19">1</tspan>
                                    <tspan x="13.65" y="19" letter-spacing="-2">4</tspan>
                                </text>
                                <text id="July" font-size="12">
                                    <tspan x="1.98007813" y="37">July</tspan>
                                </text>
                            </g>
                        </g>
                        <g id="Date-Card" transform="translate(110.000000, 0.000000)">
                            <g id="Bg">
                                <g>
                                    <use fill="black" fill-opacity="1" filter="url(#filter-4)" xlink:href="#path-3"></use>
                                    <use fill="#FFFFFF" fill-rule="evenodd" xlink:href="#path-3"></use>
                                </g>
                            </g>
                            <g id="Date" transform="translate(26.400000, 15.000000)" fill="#929DB3" font-family="Helvetica" font-weight="normal">
                                <text id="15" font-size="20">
                                    <tspan x="7.08847656" y="19">1</tspan>
                                    <tspan x="7.08847656" y="43">5</tspan>
                                </text>
                                <text id="July" font-size="12">
                                    <tspan x="1.98007813" y="37">July</tspan>
                                </text>
                            </g>
                        </g>
                        <g id="Date-Card" transform="translate(219.000000, 0.000000)">
                            <g id="Bg">
                                <g>
                                    <use fill="black" fill-opacity="1" filter="url(#filter-6)" xlink:href="#path-5"></use>
                                    <use fill="#FFFFFF" fill-rule="evenodd" xlink:href="#path-5"></use>
                                </g>
                            </g>
                            <g id="Date" transform="translate(26.400000, 15.000000)" fill="#929DB3" font-family="Helvetica" font-weight="normal">
                                <text id="16" font-size="20">
                                    <tspan x="7.08847656" y="19">1</tspan>
                                    <tspan x="7.08847656" y="43">6</tspan>
                                </text>
                                <text id="July" font-size="12">
                                    <tspan x="1.98007813" y="37">July</tspan>
                                </text>
                            </g>
                        </g>
                        <g id="Date-Card" transform="translate(320.000000, 0.000000)">
                            <g id="Bg">
                                <g>
                                    <use fill="black" fill-opacity="1" filter="url(#filter-8)" xlink:href="#path-7"></use>
                                    <use fill="#B57CFF" fill-rule="evenodd" xlink:href="#path-7"></use>
                                </g>
                            </g>
                            <g id="Date" transform="translate(26.400000, 15.000000)" fill="#FFFFFF" font-family="Helvetica" font-weight="normal">
                                <text id="17" font-size="20">
                                    <tspan x="7.08847656" y="19">1</tspan>
                                    <tspan x="7.08847656" y="43">7</tspan>
                                </text>
                                <text id="July" font-size="12">
                                    <tspan x="1.98007813" y="37">July</tspan>
                                </text>
                            </g>
                        </g>
                    </g>
                    <g id="Total" transform="translate(0.000000, 267.000000)">
                        <g id="Bg">
                            <g>
                                <use fill="black" fill-opacity="1" filter="url(#filter-10)" xlink:href="#path-9"></use>
                                <use fill="#FFFFFF" fill-rule="evenodd" xlink:href="#path-9"></use>
                            </g>
                        </g>
                        <g id="Text" transform="translate(73.000000, 17.000000)" font-family="Helvetica" font-weight="normal">
                            <text id="135" fill="#929DB3" font-size="18">
                                <tspan x="0" y="18">135</tspan>
                            </text>
                            <text id="Appoitments" font-size="14" fill="#A0A7BA">
                                <tspan x="0" y="34">Appoitments</tspan>
                            </text>
                        </g>
                        <g id="Graph" transform="translate(16.000000, 17.000000)" stroke-linecap="round" stroke-linejoin="round" stroke-width="3">
                            <path d="M19.8916307,0 C30.877475,0 39.7832614,8.93594788 39.7832614,19.9589982 C39.7832614,30.9820486 30.877475,39.9179965 19.8916307,39.9179965 C8.90578641,39.9179965 0,30.9820486 0,19.9589982 C0,8.93594788 8.90578641,0 19.8916307,0 Z" id="Oval-4" stroke="#EEEFF3" stroke-dasharray="370,20000"></path>
                            <path d="M19.8916307,0 C29.837446,0 39.7832614,8.93594788 39.7832614,19.9589982 C39.7832614,30.9820486 30.877475,39.9179965 19.8916307,39.9179965 C8.90578641,39.9179965 0,30.9820486 0,19.9589982" id="Oval-4" stroke="#B57CFF" stroke-dasharray="160,5"></path>
                        </g>
                    </g>
                </g>
            </g>
        </g>
    </g>
</svg>